<svg xmlns="http://www.w3.org/2000/svg" viewBox="0 0 22 22" fill="currentColor" aria-hidden="true"><g transform="translate(-79.668 1.723)"><path d="M95.11,11.47h-1.34s0,.37,0,.37h-1.01s0-.36,0-.36h-1.45c-.43,0-.82-.45-.74-.9l1-5.61c.04-.43.37-.75.8-.79h.39s0-2.1,0-2.1h-.7c-.27,0-.47-.23-.49-.49h-1.48c-.18,0-.37.13-.44.3l-.94,2.15c-.01.06-.03.12-.03.17v.96c.35.02.62.28.63.63v2.39c0,.37-.3.63-.66.62v1.36c0,.21-.23.35-.41.33-.22-.02-.33-.2-.33-.42v-1.28c-.34,0-.64-.26-.64-.61v-2.37c0-.36.26-.66.62-.67v-1.09c0-.12.06-.22.1-.33l.92-2.15c.2-.47.6-.81,1.13-.83h1.53c-.03-.34.22-.57.54-.57h1.86s.53,0,.53,0c.3,0,.55.23.52.56h1.55c.51.01.95.35,1.14.8l.25.57.77,1.77c.02.09.04.17.04.25v1.01c.34.02.61.27.62.61v2.43c0,.36-.32.62-.66.61v1.3c0,.21-.13.37-.34.4-.18.02-.4-.13-.4-.34v-1.36c-.33,0-.66-.24-.66-.59v-2.43c0-.35.27-.62.63-.63v-1.07s-.92-2.1-.92-2.1c-.07-.22-.26-.4-.5-.4h-1.51c0,.25-.2.48-.46.48h-.8s0,2.1,0,2.1h.38c.35.05.65.29.73.63l.13.74.29,1.72.28,1.68.28,1.62c.08.46-.3.91-.77.91Z"/><path d="M93.91,16.94h2.47c0-.3.24-.52.53-.54h.4c.27.01.53.21.53.5v.98c0,.3-.29.49-.57.49h-.34c-.17,0-.33-.08-.42-.19-.12-.14-.14-.3-.12-.49h-2.59s-3.64,0-3.64,0c.02.19-.02.37-.14.5-.12.12-.29.19-.48.18-.15,0-.3.02-.45-.02-.28-.07-.44-.35-.4-.65h-1.34c-.16.28-.44.45-.77.45h-3.64c-.37,0-.67-.17-.85-.49-.11-.2-.14-.42-.14-.66V2.57c-.06-1.09.76-2,1.86-2.03h1.92c.68.06,1.23.54,1.48,1.15.1.24.13.47.13.73v2.8c-.18.17-.25.39-.25.63v2.37c0,.21.1.39.25.54v8.2s1.35,0,1.35,0c0-.29.22-.53.51-.56h.47c.29.04.49.26.49.55h2.43s.02-2.47.02-2.47c-.3-.06-.46-.33-.4-.62h2.1c.06.31-.11.57-.41.62l.02,2.45ZM85.81,11.62c.14,0,.29.11.29.24v.46c0,.13-.14.25-.28.25h-2.23c-.15,0-.28-.13-.28-.27v-.38c0-.15.12-.3.29-.3h.89s0-8.99,0-8.99c-.23,0-.39-.18-.39-.4v-.47s-.32,0-.32,0c-.32,0-.64.25-.64.6v14.35c.05.31.32.52.63.51h1.99c.36-.03.6-.31.57-.68v-5.56s0-8.6,0-8.6c0-.35-.3-.62-.63-.62h-.44s0,.53,0,.53c0,.2-.17.34-.37.35v8.99s.93,0,.93,0Z"/><path d="M95.61,13.71h-4.91c-.36,0-.66-.27-.73-.62-.1-.52.3-1.09.86-1.09h4.81c.35,0,.66.24.77.52.14.34.06.72-.2.96-.17.15-.36.22-.6.22Z"/><path d="M85.79,15.86h-2.18c-.15,0-.31-.1-.31-.26v-.43c0-.16.15-.26.31-.26h2.22c.14,0,.27.12.27.26v.44c0,.16-.15.26-.31.26Z"/><path d="M86.1,16.7c0,.17-.17.25-.32.25h-2.22c-.16,0-.26-.16-.26-.29v-.38c0-.15.14-.27.29-.27h2.24c.12,0,.26.1.26.21v.48Z"/><path d="M85.02,13.67c-.06-.16-.18-.25-.33-.25s-.29.09-.34.25h-.79c-.14,0-.24-.13-.26-.26v-.46c0-.15.17-.24.31-.24h2.22c.13,0,.26.12.26.23v.49c-.04.13-.16.22-.3.22h-.78Z"/><path d="M86.09,14.53c0,.16-.18.23-.32.23h-2.17c-.15,0-.3-.11-.3-.26v-.4c0-.15.11-.28.26-.28h.77c.03.17.17.29.34.29s.31-.11.35-.3h.75c.15,0,.32.08.32.25v.46Z"/></g></svg>
